<?xml version="1.0" encoding="UTF-8"?>
<svg version="1.1" xmlns="http://www.w3.org/2000/svg" width="1040" height="717">
<path d="M0 0 C343.2 0 686.4 0 1040 0 C1040 236.61 1040 473.22 1040 717 C696.8 717 353.6 717 0 717 C0 480.39 0 243.78 0 0 Z " fill="#343647" transform="translate(0,0)"/>
<path d="M0 0 C2.3428766 0.02376938 4.68461944 0.02050767 7.02758789 0.01391602 C15.58905614 0.02959357 23.74293218 0.53217428 32.14672852 2.33618164 C32.85514893 2.4820874 33.56356934 2.62799316 34.29345703 2.77832031 C49.11106005 5.98582931 63.2653107 11.31556671 77.14672852 17.33618164 C78.24758789 17.79766602 79.34844727 18.25915039 80.48266602 18.73461914 C84.4375187 20.46328609 88.29185767 22.335169 92.14672852 24.27368164 C92.81961914 24.60819336 93.49250977 24.94270508 94.18579102 25.28735352 C97.52813151 26.96174996 100.77476119 28.69935354 103.97485352 30.63305664 C106.98084311 32.70520511 106.98084311 32.70520511 109.89672852 31.64868164 C111.01047852 30.99899414 111.01047852 30.99899414 112.14672852 30.33618164 C113.13672852 30.00618164 114.12672852 29.67618164 115.14672852 29.33618164 C115.14672852 28.67618164 115.14672852 28.01618164 115.14672852 27.33618164 C118.13712619 25.65068477 121.13834734 23.98926419 124.14672852 22.33618164 C124.76354492 21.99312988 125.38036133 21.65007812 126.01586914 21.29663086 C134.49663375 16.59533743 142.75914897 12.42655268 151.99829102 9.40649414 C155.20489677 8.37185382 155.20489677 8.37185382 158.40454102 6.87133789 C172.9117591 0.57837957 189.00930166 -0.14308567 204.58422852 -0.10131836 C205.34102905 -0.10126801 206.09782959 -0.10121765 206.87756348 -0.10116577 C214.86614351 -0.07655517 222.39061682 0.21720222 230.14672852 2.33618164 C231.64456703 2.61872452 233.14450638 2.89045818 234.64672852 3.14868164 C244.32124667 5.07448698 254.6402428 7.52333654 263.29907227 12.35571289 C267.08528225 14.36488563 271.15154958 15.79705533 275.14672852 17.33618164 C275.14672852 17.99618164 275.14672852 18.65618164 275.14672852 19.33618164 C275.9962207 19.57852539 276.84571289 19.82086914 277.72094727 20.07055664 C281.48965107 21.46287139 284.6420332 23.36874365 287.95922852 25.58618164 C288.87019287 26.18571655 288.87019287 26.18571655 289.79956055 26.79736328 C291.01583803 27.59881765 292.23039899 28.40288389 293.44311523 29.2097168 C294.97057265 30.21970369 296.51284742 31.20719705 298.05688477 32.19165039 C298.8702832 32.7137207 299.68368164 33.23579102 300.52172852 33.77368164 C301.23071289 34.22614258 301.93969727 34.67860352 302.67016602 35.14477539 C303.15743164 35.53793945 303.64469727 35.93110352 304.14672852 36.33618164 C304.14672852 36.99618164 304.14672852 37.65618164 304.14672852 38.33618164 C304.8312207 38.54887695 305.51571289 38.76157227 306.22094727 38.98071289 C310.05030935 40.75479653 312.82232987 43.2364603 315.95922852 46.02368164 C316.89496704 46.8415918 316.89496704 46.8415918 317.84960938 47.67602539 C319.07932082 48.75188282 320.30670396 49.8304086 321.53149414 50.91186523 C323.41071526 52.5689656 325.31066785 54.20130995 327.20922852 55.83618164 C335.40297235 63.04102536 343.6941001 70.36360241 351.14672852 78.33618164 C351.14672852 78.99618164 351.14672852 79.65618164 351.14672852 80.33618164 C351.80672852 80.33618164 352.46672852 80.33618164 353.14672852 80.33618164 C398.66686759 127.66436363 421.98038812 197.76814989 421.49780273 262.54785156 C420.56134117 305.86411063 409.37558649 349.03080656 387.14672852 386.33618164 C386.48672852 386.33618164 385.82672852 386.33618164 385.14672852 386.33618164 C385.08485352 387.00520508 385.02297852 387.67422852 384.95922852 388.36352539 C383.83211957 392.48722687 381.61110297 395.44533655 379.14672852 398.89868164 C378.6555957 399.59888428 378.16446289 400.29908691 377.65844727 401.02050781 C366.06493996 417.46149419 366.06493996 417.46149419 361.14672852 422.33618164 C359.97098141 424.43607816 359.97098141 424.43607816 359.14672852 426.33618164 C358.48672852 426.33618164 357.82672852 426.33618164 357.14672852 426.33618164 C356.94047852 427.18180664 356.73422852 428.02743164 356.52172852 428.89868164 C354.43619984 434.11250333 350.91937292 437.6638756 346.86938477 441.48461914 C343.32447778 445.19736247 340.3990313 449.24284526 337.39672852 453.39868164 C336.15772557 455.10092715 334.91814202 456.80275022 333.67797852 458.50415039 C333.07727539 459.32963379 332.47657227 460.15511719 331.85766602 461.00561523 C328.91164202 465.01856402 325.86932133 468.9570488 322.81860352 472.89086914 C321.08065221 475.23861195 321.08065221 475.23861195 320.18188477 477.78149414 C318.85637822 481.05274425 316.96582179 483.52749404 314.83422852 486.33618164 C314.0749707 487.34680664 313.31571289 488.35743164 312.53344727 489.39868164 C310.14672852 492.33618164 310.14672852 492.33618164 307.65063477 494.82836914 C304.94228293 497.54094617 302.69959268 500.39822178 300.39672852 503.46118164 C299.51500941 504.61956679 298.63217722 505.77710546 297.74829102 506.93383789 C297.31033203 507.50763184 296.87237305 508.08142578 296.42114258 508.67260742 C278.1963169 532.46263849 253.09560819 554.89744796 222.42797852 559.90649414 C219.22207431 560.51034596 216.22266231 561.56006499 213.15454102 562.65258789 C191.2374218 570.1146421 162.6361833 563.5542377 141.78344727 555.70336914 C138.59040115 554.50297586 135.38902359 553.39424152 132.14672852 552.33618164 C129.14672852 551.33618164 126.14672852 550.33618164 123.14672852 549.33618164 C122.52241943 549.15514893 121.89811035 548.97411621 121.25488281 548.78759766 C114.54901114 546.74870604 108.67759692 543.57242074 102.58422852 540.14868164 C101.57553711 539.58987305 100.5668457 539.03106445 99.52758789 538.45532227 C97.06347407 537.08896531 94.60340784 535.71584661 92.14672852 534.33618164 C91.05062256 535.04931519 91.05062256 535.04931519 89.93237305 535.77685547 C84.45204207 539.32964662 78.93401536 542.7160502 73.14672852 545.74633789 C71.07465332 546.84442982 69.03370867 548.00260227 67.02172852 549.20727539 C57.79402735 554.51983773 48.03627707 557.23093088 37.77172852 559.77368164 C37.07641022 559.94712097 36.38109192 560.1205603 35.66470337 560.29925537 C6.69244985 567.44702792 -19.81484394 564.63647936 -47.85327148 555.33618164 C-47.85327148 554.67618164 -47.85327148 554.01618164 -47.85327148 553.33618164 C-48.40869629 553.23821289 -48.96412109 553.14024414 -49.53637695 553.03930664 C-55.23300291 551.9214236 -59.91064138 550.13471464 -64.97827148 547.33618164 C-65.70691406 546.94100342 -66.43555664 546.5458252 -67.1862793 546.13867188 C-83.46312089 537.15183746 -98.23482257 525.95608594 -111.85327148 513.33618164 C-112.75174805 512.52922852 -113.65022461 511.72227539 -114.57592773 510.89086914 C-120.59525123 505.4629462 -126.42342273 499.86910289 -132.16577148 494.14868164 C-132.82335449 493.49569092 -133.4809375 492.8427002 -134.15844727 492.16992188 C-138.59222655 487.72214354 -142.76422802 483.10107967 -146.85327148 478.33618164 C-147.76577274 477.29168434 -148.67851398 476.24739663 -149.59155273 475.20336914 C-155.73164671 468.06632516 -161.31778379 460.70077641 -166.6965332 452.9777832 C-168.4553097 450.48179056 -170.28348611 448.03788489 -172.10327148 445.58618164 C-179.20239594 435.81427925 -184.82286789 425.13391444 -190.62036133 414.55981445 C-191.73380347 412.5516499 -192.87444276 410.56303853 -194.02905273 408.57836914 C-199.47708784 399.049843 -202.83929349 389.13377246 -206.09008789 378.67504883 C-206.77649163 376.57148267 -207.54457399 374.53468167 -208.36499023 372.48071289 C-210.41343445 367.12226212 -211.59175887 361.54659811 -212.85327148 355.96118164 C-213.11527344 354.8079541 -213.37727539 353.65472656 -213.6472168 352.46655273 C-215.73538927 343.13218774 -217.57663095 333.81614341 -218.85327148 324.33618164 C-219.00771729 323.22243164 -219.00771729 323.22243164 -219.1652832 322.08618164 C-222.12250562 299.96073869 -221.68657787 277.44733965 -218.85327148 255.33618164 C-218.75143555 254.50715332 -218.64959961 253.678125 -218.54467773 252.82397461 C-215.550141 228.94624113 -208.9117956 206.25281275 -199.13061523 184.27758789 C-198.01838001 181.71638569 -197.06478846 179.16483513 -196.16577148 176.52368164 C-195.51608398 174.94586914 -195.51608398 174.94586914 -194.85327148 173.33618164 C-193.86327148 173.00618164 -192.87327148 172.67618164 -191.85327148 172.33618164 C-190.72377927 169.53241813 -190.72377927 169.53241813 -189.85327148 166.33618164 C-189.19915464 164.66454969 -188.5367383 162.99602963 -187.85327148 161.33618164 C-187.19327148 161.33618164 -186.53327148 161.33618164 -185.85327148 161.33618164 C-185.59803711 160.62719727 -185.34280273 159.91821289 -185.07983398 159.18774414 C-181.43451204 150.71295109 -175.09464654 143.17803085 -169.61499023 135.80883789 C-167.40381685 132.70535063 -165.50461115 129.46939015 -163.60717773 126.16821289 C-163.21401367 125.50176758 -162.82084961 124.83532227 -162.41577148 124.14868164 C-162.02518555 123.47450195 -161.63459961 122.80032227 -161.23217773 122.10571289 C-159.85327148 120.33618164 -159.85327148 120.33618164 -157.88842773 119.37133789 C-155.24702049 118.02781981 -154.30596376 116.44749251 -152.72827148 113.96118164 C-152.23069336 113.19032227 -151.73311523 112.41946289 -151.22045898 111.62524414 C-149.83980326 109.41248428 -149.83980326 109.41248428 -148.90795898 107.24243164 C-147.63243842 104.93704633 -146.18359164 103.81576967 -144.10327148 102.21118164 C-140.14111546 98.87612945 -137.9355923 95.39984419 -135.43139648 90.91430664 C-132.80466678 86.62311455 -129.5334496 82.76769908 -125.85327148 79.33618164 C-125.19327148 79.33618164 -124.53327148 79.33618164 -123.85327148 79.33618164 C-123.60706055 78.62719727 -123.36084961 77.91821289 -123.10717773 77.18774414 C-121.69060171 73.96624726 -119.92711437 71.50688962 -117.79077148 68.71118164 C-117.39374023 68.19048096 -116.99670898 67.66978027 -116.58764648 67.13330078 C-113.18472941 62.69917639 -109.66963808 58.35925319 -106.09936523 54.05883789 C-104.59074297 52.23012534 -103.10388474 50.38325775 -101.63842773 48.51977539 C-77.58249362 18.12220663 -38.60404439 -0.41771369 0 0 Z " fill="#647EBD" transform="translate(411.853271484375,74.663818359375)"/>
<path d="M0 0 C0.75680054 0.00005035 1.51360107 0.00010071 2.29333496 0.00015259 C10.281915 0.02476319 17.8063883 0.31852058 25.5625 2.4375 C27.06033851 2.72004288 28.56027787 2.99177654 30.0625 3.25 C39.73701815 5.17580534 50.05601429 7.6246549 58.71484375 12.45703125 C62.50105374 14.46620399 66.56732107 15.89837369 70.5625 17.4375 C70.5625 18.0975 70.5625 18.7575 70.5625 19.4375 C71.41199219 19.67984375 72.26148438 19.9221875 73.13671875 20.171875 C76.90542255 21.56418975 80.05780468 23.47006201 83.375 25.6875 C84.28596436 26.28703491 84.28596436 26.28703491 85.21533203 26.89868164 C86.43160952 27.70013601 87.64617048 28.50420225 88.85888672 29.31103516 C90.38634414 30.32102205 91.92861891 31.30851541 93.47265625 32.29296875 C94.28605469 32.81503906 95.09945313 33.33710937 95.9375 33.875 C96.64648438 34.32746094 97.35546875 34.77992187 98.0859375 35.24609375 C98.57320312 35.63925781 99.06046875 36.03242187 99.5625 36.4375 C99.5625 37.0975 99.5625 37.7575 99.5625 38.4375 C100.24699219 38.65019531 100.93148438 38.86289063 101.63671875 39.08203125 C105.46608083 40.85611489 108.23810135 43.33777866 111.375 46.125 C112.31073853 46.94291016 112.31073853 46.94291016 113.26538086 47.77734375 C114.4950923 48.85320118 115.72247544 49.93172696 116.94726562 51.01318359 C118.82648674 52.67028395 120.72643933 54.30262831 122.625 55.9375 C130.81874383 63.14234372 139.10987158 70.46492076 146.5625 78.4375 C146.5625 79.0975 146.5625 79.7575 146.5625 80.4375 C147.2225 80.4375 147.8825 80.4375 148.5625 80.4375 C194.08263908 127.76568199 217.39615961 197.86946825 216.91357422 262.64916992 C215.97711265 305.96542899 204.79135798 349.13212492 182.5625 386.4375 C181.9025 386.4375 181.2425 386.4375 180.5625 386.4375 C180.500625 387.10652344 180.43875 387.77554687 180.375 388.46484375 C179.24789105 392.58854523 177.02687445 395.54665491 174.5625 399 C174.07136719 399.70020264 173.58023437 400.40040527 173.07421875 401.12182617 C161.48071144 417.56281255 161.48071144 417.56281255 156.5625 422.4375 C155.38675289 424.53739652 155.38675289 424.53739652 154.5625 426.4375 C153.9025 426.4375 153.2425 426.4375 152.5625 426.4375 C152.35625 427.283125 152.15 428.12875 151.9375 429 C149.85197133 434.21382168 146.33514441 437.76519396 142.28515625 441.5859375 C138.74024927 445.29868083 135.81480279 449.34416362 132.8125 453.5 C131.57349705 455.20224551 130.33391351 456.90406858 129.09375 458.60546875 C128.49304688 459.43095215 127.89234375 460.25643555 127.2734375 461.10693359 C124.3274135 465.11988238 121.28509282 469.05836716 118.234375 472.9921875 C116.4964237 475.33993031 116.4964237 475.33993031 115.59765625 477.8828125 C114.27214971 481.15406261 112.38159327 483.62881239 110.25 486.4375 C109.49074219 487.448125 108.73148438 488.45875 107.94921875 489.5 C105.5625 492.4375 105.5625 492.4375 103.06640625 494.9296875 C100.35805442 497.64226453 98.11536417 500.49954014 95.8125 503.5625 C94.9307809 504.72088515 94.04794871 505.87842382 93.1640625 507.03515625 C92.72610352 507.6089502 92.28814453 508.18274414 91.83691406 508.77392578 C73.61208839 532.56395685 48.51137968 554.99876632 17.84375 560.0078125 C14.6378458 560.61166432 11.6384338 561.66138335 8.5703125 562.75390625 C-13.34680671 570.21596046 -41.94804521 563.65555606 -62.80078125 555.8046875 C-65.99404618 554.60421196 -69.1965335 553.50018425 -72.4375 552.4375 C-83.53019931 548.76642043 -93.36211871 543.27281331 -103.46728516 537.48144531 C-105.55066332 536.30825272 -105.55066332 536.30825272 -108.4375 535.4375 C-108.4375 534.7775 -108.4375 534.1175 -108.4375 533.4375 C-109.66339844 533.10878906 -109.66339844 533.10878906 -110.9140625 532.7734375 C-115.33929962 531.09557598 -118.91804175 528.72030138 -122.8125 526.0625 C-123.58964355 525.53736816 -124.36678711 525.01223633 -125.16748047 524.47119141 C-130.71115671 520.69268816 -136.17016588 516.80378251 -141.5625 512.8125 C-142.60156494 512.04993896 -142.60156494 512.04993896 -143.66162109 511.27197266 C-145.29302498 510.04455929 -146.87157076 508.74741901 -148.4375 507.4375 C-148.4375 506.7775 -148.4375 506.1175 -148.4375 505.4375 C-149.00210938 505.19128906 -149.56671875 504.94507813 -150.1484375 504.69140625 C-152.83645928 503.21895746 -154.81067156 501.45445721 -157.0625 499.375 C-158.38314453 498.16263672 -158.38314453 498.16263672 -159.73046875 496.92578125 C-160.62378906 496.10464844 -161.51710938 495.28351563 -162.4375 494.4375 C-164.08260293 492.97834277 -165.72842437 491.51999517 -167.375 490.0625 C-171.18881551 486.62460907 -174.90611373 483.10375512 -178.5625 479.5 C-179.49320312 478.58347656 -180.42390625 477.66695312 -181.3828125 476.72265625 C-183.4375 474.4375 -183.4375 474.4375 -183.4375 472.4375 C-184.015 472.20417969 -184.5925 471.97085937 -185.1875 471.73046875 C-187.98518996 470.12276844 -189.43798572 468.28347548 -191.4375 465.75 C-192.23542969 464.74195313 -193.03335938 463.73390625 -193.85546875 462.6953125 C-194.27876465 462.15680664 -194.70206055 461.61830078 -195.13818359 461.06347656 C-196.39182466 459.49465854 -197.68941656 457.96127374 -198.98828125 456.4296875 C-215.7445881 436.55261327 -229.28153401 413.75836177 -241.92626953 391.125 C-243.2587143 388.75544393 -244.61604435 386.40453643 -245.99609375 384.0625 C-256.29423255 366.57645923 -256.29423255 366.57645923 -255.4375 358.4375 C-256.0975 358.4375 -256.7575 358.4375 -257.4375 358.4375 C-258.607253 352.15292181 -258.62141065 346.06218433 -258.625 339.6875 C-258.64336914 337.99367188 -258.64336914 337.99367188 -258.66210938 336.265625 C-258.69701448 316.16028649 -252.03392681 299.7501881 -238.2421875 285.078125 C-224.8153409 272.43669282 -208.86002483 264.83306973 -190.375 265.125 C-189.35083984 265.12177734 -188.32667969 265.11855469 -187.27148438 265.11523438 C-163.75129169 265.28055202 -144.77802023 278.48603978 -128.4375 294.4375 C-127.29565028 295.7142956 -126.17033961 297.00608537 -125.0625 298.3125 C-112.52223879 312.96180514 -96.23313751 324.20548293 -78.4375 331.4375 C-77.47328125 331.83453125 -76.5090625 332.2315625 -75.515625 332.640625 C-44.80458291 344.53449679 -10.1830363 341.44952837 19.5625 328.4375 C28.79215817 324.21962263 36.89607622 319.13349039 44.5625 312.4375 C45.26503906 311.86644531 45.96757813 311.29539062 46.69140625 310.70703125 C50.45930788 307.6876838 50.45930788 307.6876838 52.5625 303.4375 C54.22762623 302.43493708 55.89458568 301.43541762 57.5625 300.4375 C59.34982841 298.68232742 61.07744136 296.86486493 62.75 295 C63.60980469 294.05253906 64.46960938 293.10507812 65.35546875 292.12890625 C67.17521685 289.9097798 68.45375035 288.05761788 69.5625 285.4375 C70.2225 285.4375 70.8825 285.4375 71.5625 285.4375 C71.830625 284.303125 72.09875 283.16875 72.375 282 C72.766875 280.824375 73.15875 279.64875 73.5625 278.4375 C74.5525 278.1075 75.5425 277.7775 76.5625 277.4375 C76.706875 276.65375 76.85125 275.87 77 275.0625 C77.5625 272.4375 77.5625 272.4375 78.5625 270.4375 C79.2225 270.4375 79.8825 270.4375 80.5625 270.4375 C80.98208984 269.14779297 80.98208984 269.14779297 81.41015625 267.83203125 C82.52214823 264.55636673 83.73779439 261.34539375 85 258.125 C87.89016724 250.65306764 90.42724249 243.15727715 92.5625 235.4375 C93.2225 235.4375 93.8825 235.4375 94.5625 235.4375 C94.59988281 234.88964844 94.63726563 234.34179688 94.67578125 233.77734375 C95.11690019 228.45796835 95.95192411 223.34741541 97.0625 218.125 C100.04739172 206.72569055 100.04739172 206.72569055 98.59765625 195.6015625 C96.9812428 192.22234345 97.26165309 188.67956639 97.1875 185 C95.85876126 151.09098017 82.29543053 116.26556722 57.5625 92.4375 C39.01169011 75.91642249 18.60141445 66.4375 -6.4375 66.4375 C-17.2239674 68.11904055 -29.2389873 70.3051582 -38.4375 76.4375 C-39.92636719 75.20386719 -39.92636719 75.20386719 -41.4453125 73.9453125 C-58.23181775 60.11856056 -76.02877422 47.99557731 -94.4375 36.4375 C-93.7775 36.1075 -93.1175 35.7775 -92.4375 35.4375 C-91.26263503 32.81133124 -90.34735138 30.16705415 -89.4375 27.4375 C-87.96875 26.3671875 -87.96875 26.3671875 -85.9375 25.3125 C-85.12667969 24.88710937 -84.31585937 24.46171875 -83.48046875 24.0234375 C-82.47628906 23.50007813 -81.47210937 22.97671875 -80.4375 22.4375 C-79.14063448 21.72369761 -77.84516061 21.00736334 -76.55078125 20.2890625 C-68.72199856 15.98530982 -61.09580319 12.28948773 -52.5859375 9.5078125 C-49.37933175 8.47317218 -49.37933175 8.47317218 -46.1796875 6.97265625 C-31.67246942 0.67969793 -15.57492686 -0.04176731 0 0 Z " fill="#B99BC4" transform="translate(616.4375,74.5625)"/>
<path d="M0 0 C0.66 0.33 1.32 0.66 2 1 C4.2073364 1.10652026 6.41605414 1.18489423 8.625 1.25 C32.55716449 2.49919043 54.04589626 16.82450522 70 34 C73.69505757 38.41805886 76.86851288 43.17445207 80 48 C81.06347656 49.59134766 81.06347656 49.59134766 82.1484375 51.21484375 C96.35915367 73.23873146 102.94783947 98.2448819 103.62207031 124.30224609 C103.74366701 128.04691058 103.86992642 129.80488964 106 133 C106.84419793 145.51144628 102.57347879 158.86991128 100 171 C99.34 171 98.68 171 98 171 C97.9175 171.886875 97.835 172.77375 97.75 173.6875 C96.03843254 185.22901571 91.10024661 195.64191489 86 206 C85.34 206 84.68 206 84 206 C83.731875 207.093125 83.46375 208.18625 83.1875 209.3125 C82.04763011 212.85209598 81.5600561 213.6532819 79 216 C78.32650839 217.66392045 77.6590841 219.33032028 77 221 C76.34 221.33 75.68 221.66 75 222 C74.5771875 222.71542969 74.154375 223.43085938 73.71875 224.16796875 C71.64501933 227.58491133 69.19176886 230.37440216 66.5 233.3125 C65.77103516 234.13717773 65.77103516 234.13717773 65.02734375 234.97851562 C63.74911882 236.38038357 62.37935185 237.69750963 61 239 C60.01 239 59.02 239 58 239 C57.92136719 239.57363281 57.84273437 240.14726562 57.76171875 240.73828125 C54.55885346 250.24832743 39.55076741 257.61480575 30.88818359 262.09130859 C12.54695332 271.11259183 -6.34509534 276.42544319 -26.875 276.25 C-28.01396729 276.24395752 -29.15293457 276.23791504 -30.32641602 276.23168945 C-66.47668644 275.80584562 -96.48129606 259.03281342 -121.47265625 233.6953125 C-122.79856241 232.22359057 -124.04949742 230.6849887 -125.28515625 229.13671875 C-127.99574747 225.87048409 -131.02561651 223.27836203 -134.375 220.6875 C-135.27931763 219.98463867 -135.27931763 219.98463867 -136.2019043 219.26757812 C-155.37994678 204.66608589 -172.8944406 200.22118719 -197 202 C-212.39830995 204.29152931 -228.45680596 215.53830574 -238.02734375 227.54296875 C-239.77323228 229.98278338 -241.40868077 232.45730224 -243 235 C-243.38800781 235.58265625 -243.77601563 236.1653125 -244.17578125 236.765625 C-250.44959929 246.7455981 -252.14429824 258.21403742 -252.09765625 269.78125 C-252.09553383 270.82968079 -252.09553383 270.82968079 -252.09336853 271.89929199 C-252.0878367 274.09957429 -252.07529777 276.29974923 -252.0625 278.5 C-252.05747616 280.00520685 -252.05291482 281.51041532 -252.04882812 283.015625 C-252.03788977 286.67711735 -252.02067359 290.33854817 -252 294 C-251.34 294 -250.68 294 -250 294 C-249.814375 295.19625 -249.62875 296.3925 -249.4375 297.625 C-241.10175492 334.12204602 -207.56849215 375.21497041 -183.328125 402.91015625 C-180 406.7150632 -180 406.7150632 -180 410 C-185.79151712 412.36171832 -191.26406949 413.80330767 -197.4375 414.75 C-198.62956055 414.95689453 -198.62956055 414.95689453 -199.84570312 415.16796875 C-205.45158356 416.0528677 -210.40682661 415.86225556 -216 415 C-217.49080078 414.82210937 -217.49080078 414.82210937 -219.01171875 414.640625 C-241.4247825 411.36864489 -262.42204546 398.27350092 -276.1171875 380.20703125 C-277.78721751 377.82941825 -279.41787681 375.43677495 -281 373 C-281.33 373.33 -281.66 373.66 -282 374 C-282.66 373.67 -283.32 373.34 -284 373 C-284 371.68 -284 370.36 -284 369 C-284.66 369 -285.32 369 -286 369 C-287.70692444 364.24130157 -289.38552084 359.47347895 -291.04980469 354.69970703 C-291.69303206 352.87216121 -292.34499148 351.04766929 -293.00488281 349.22607422 C-304.71356338 316.90281867 -308.94192913 281.64722419 -300 248 C-299.67312257 246.68230519 -299.34629711 245.36459748 -299.01953125 244.046875 C-289.58371172 208.46035563 -266.59846624 175.49745414 -235.07666016 156.20214844 C-204.00711947 138.21644207 -170.52281837 135.35133971 -136 144 C-127.5554663 146.32716455 -119.69069457 149.83568382 -112 154 C-112 154.66 -112 155.32 -112 156 C-110.92298828 156.38478516 -110.92298828 156.38478516 -109.82421875 156.77734375 C-101.63374495 160.32315052 -94.75862452 166.90669694 -88.2890625 172.921875 C-85.93640754 175.05773241 -83.4857768 177.02202604 -81 179 C-78.51676185 181.36210458 -76.25229892 183.66757182 -74.1796875 186.3984375 C-70.20584354 191.14141255 -65.01594247 194.43673928 -60 198 C-59.41750488 198.42007324 -58.83500977 198.84014648 -58.23486328 199.27294922 C-39.37619874 212.79183398 -21.57031328 218.55702653 1.796875 215.50390625 C8.15032906 214.04722054 13.5389754 211.51844598 19 208 C19.76183594 207.51144531 20.52367187 207.02289063 21.30859375 206.51953125 C23.56045327 205.04234178 25.78070081 203.52551461 28 202 C28.65355469 201.5771875 29.30710937 201.154375 29.98046875 200.71875 C34.09458917 197.98185112 36.3688554 195.26426883 39 191 C39.63550781 190.38382813 40.27101563 189.76765625 40.92578125 189.1328125 C50.04331746 179.75771877 53.63337914 165.66508412 54 153 C54.02835938 152.0821875 54.05671875 151.164375 54.0859375 150.21875 C54.12538081 147.47349554 54.08128179 144.74422801 54 142 C53.98324219 141.05511719 53.96648437 140.11023438 53.94921875 139.13671875 C53.56204464 130.7848201 51.00819802 123.74072138 48 116 C47.73574219 115.07058594 47.47148438 114.14117187 47.19921875 113.18359375 C45.46074994 108.56844039 42.87619755 104.59741233 40.25 100.4375 C39.67580322 99.52073486 39.10160645 98.60396973 38.51000977 97.65942383 C28.64161321 81.99159044 18.46630963 66.55318923 7 52 C6.39115967 51.21165771 5.78231934 50.42331543 5.1550293 49.61108398 C-1.47905599 41.22806165 -8.96235882 33.81023684 -16.5625 26.3125 C-17.87091292 25.01414556 -19.17885886 23.71532035 -20.48632812 22.41601562 C-23.65220712 19.27190299 -26.82429393 16.13418522 -30 13 C-29.19091797 10.59448242 -29.19091797 10.59448242 -28 8 C-24.9453125 6.48828125 -24.9453125 6.48828125 -21.125 5.3125 C-20.45968262 5.10463867 -19.79436523 4.89677734 -19.10888672 4.68261719 C-13.87434217 3.10638354 -8.61584113 2.08211215 -3.1953125 1.359375 C-1.02955757 1.22408586 -1.02955757 1.22408586 0 0 Z " fill="#615775" transform="translate(611,139)"/>
<path d="M0 0 C0.99 0.495 0.99 0.495 2 1 C-6.1814611 5.9918582 -14.35445622 10.21204893 -23.31225586 13.65258789 C-27.36683391 15.22181863 -27.36683391 15.22181863 -30.99609375 17.5703125 C-34.00291713 19.71553152 -37.3895548 20.27658324 -40.9375 21.0625 C-46.37079271 22.27347458 -46.37079271 22.27347458 -51.625 24.0859375 C-54.48706648 25.18745651 -57.006799 25.38093496 -60.0625 25.5625 C-63.9873458 25.76130746 -63.9873458 25.76130746 -67.82617188 26.50048828 C-80.49960332 29.4126447 -97.14555985 28.3752927 -109 23 C-108.67 22.34 -108.34 21.68 -108 21 C-106.10894531 21.35964844 -106.10894531 21.35964844 -104.1796875 21.7265625 C-91.47317764 23.94667725 -80.12873016 23.84197946 -67.36474609 22.22802734 C-65.10510443 22.01013499 -62.94295747 21.9898214 -60.67578125 22.05078125 C-57.04718387 22.00065185 -55.25086404 21.43284529 -52 20 C-48.82136563 19.34648098 -45.64107721 18.76133143 -42.43945312 18.23242188 C-38.4480947 17.50635567 -36.1464316 16.46951006 -33 14 C-30.74996106 13.20899252 -28.47507165 12.48732146 -26.1875 11.8125 C-18.97664515 9.57810026 -12.6095074 6.36453066 -6.046875 2.671875 C-3 1 -3 1 0 0 Z " fill="#E1BBC6" transform="translate(713,455)"/>
<path d="M0 0 C14.34247986 12.12913421 19.35689916 41.34850652 21 59 C21.28755188 63.09781236 21.51548456 67.19678568 21.62255859 71.3034668 C21.74335934 75.04786166 21.87014481 76.80521722 24 80 C24.13035016 87.74497205 22.74888197 95.47810959 21 103 C20.67 103 20.34 103 20 103 C19.98541748 102.22736816 19.97083496 101.45473633 19.95581055 100.65869141 C20.18943658 62.72702644 20.18943658 62.72702644 10 27 C9.54090521 25.5334472 9.12208686 24.0535052 8.75 22.5625 C7.20240553 17.08317905 4.82748078 12.10237431 2.33691406 7.00219727 C0 2.18747802 0 2.18747802 0 0 Z " fill="#8A6B8C" transform="translate(693,192)"/>
<path d="M0 0 C0.66 0 1.32 0 2 0 C1.4657381 6.67827373 -0.52018792 10.58720987 -5.3125 15.25 C-7.65080124 17.64268034 -9.37457386 19.87899498 -11.25 22.625 C-23.07536096 39.8533276 -37.53304321 54.69325418 -54.375 67 C-55.16076416 67.5767749 -55.94652832 68.1535498 -56.75610352 68.74780273 C-57.50432373 69.28477783 -58.25254395 69.82175293 -59.0234375 70.375 C-59.69294434 70.85710937 -60.36245117 71.33921875 -61.05224609 71.8359375 C-63.04378516 73.02616791 -64.73265045 73.56511389 -67 74 C-67 73.34 -67 72.68 -67 72 C-65.31874988 70.80457522 -63.57751917 69.69287157 -61.8125 68.625 C-58.79947527 66.79379086 -55.99990139 64.99991982 -53.26171875 62.7734375 C-51 61 -51 61 -49 61 C-48.7525 60.360625 -48.505 59.72125 -48.25 59.0625 C-47 57 -47 57 -44.9375 56.4375 C-44.298125 56.293125 -43.65875 56.14875 -43 56 C-42.67 55.01 -42.34 54.02 -42 53 C-40.02043058 51.30911778 -38.02054804 49.64169528 -36 48 C-35.67 47.34 -35.34 46.68 -35 46 C-34.01 45.67 -33.02 45.34 -32 45 C-30.18678648 42.86749686 -28.48904855 40.73530191 -26.8125 38.5 C-23.59364724 34.28921723 -20.36503625 30.19636478 -16.75 26.3125 C-9.71515072 18.54545212 -4.86661506 9.21626368 0 0 Z " fill="#F4C5CB" transform="translate(782,381)"/>
<path d="M0 0 C4.25480616 0.7145476 8.19789375 2.06472985 12.25 3.5 C17.17609514 5.20247948 21.77411668 6.4297592 26.984375 6.7578125 C29.22721925 7.02730154 31.02219864 7.68224392 33.125 8.5 C39.56482746 10.77222828 46.23315077 10.81975096 53 11 C54.16813232 11.03287109 54.16813232 11.03287109 55.35986328 11.06640625 C70.24279365 11.42139564 84.47721074 10.38865083 99 7 C102.0625 6.875 102.0625 6.875 104 7 C104 6.34 104 5.68 104 5 C104.71929688 4.86851562 105.43859375 4.73703125 106.1796875 4.6015625 C109.77889237 3.83386506 113.20495658 2.67981682 116.6953125 1.5234375 C119 1 119 1 122 2 C85.92564069 18.39743605 42.82646403 17.56540649 6 4 C3.98381223 3.0330528 1.97775244 2.04330977 0 1 C0 0.67 0 0.34 0 0 Z " fill="#FAC6B2" transform="translate(568,458)"/>
<path d="M0 0 C5.75 1.875 5.75 1.875 8 3 C8 3.66 8 4.32 8 5 C9.08704224 5.1700354 9.08704224 5.1700354 10.19604492 5.34350586 C13.12483327 6.0292274 15.24679724 7.03529909 17.86328125 8.50390625 C18.74951172 8.99697266 19.63574219 9.49003906 20.54882812 9.99804688 C21.46083984 10.51431641 22.37285156 11.03058594 23.3125 11.5625 C24.24384766 12.08263672 25.17519531 12.60277344 26.13476562 13.13867188 C28.42663795 14.41976974 30.71481613 15.70702105 33 17 C30 18 30 18 27.61157227 17.04370117 C26.22796509 16.30083862 26.22796509 16.30083862 24.81640625 15.54296875 C23.80642578 15.00736328 22.79644531 14.47175781 21.75585938 13.91992188 C20.70205078 13.34822266 19.64824219 12.77652344 18.5625 12.1875 C17.51255859 11.62740234 16.46261719 11.06730469 15.38085938 10.49023438 C13.42400926 9.44633154 11.4694202 8.39817165 9.51782227 7.34448242 C7.36124676 6.1929008 5.19294527 5.0802607 3 4 C2.319375 4.5775 1.63875 5.155 0.9375 5.75 C-2.22293779 8.17076086 -5.52042291 10.09367365 -9 12 C-9.62261719 12.35707031 -10.24523437 12.71414063 -10.88671875 13.08203125 C-39.32734926 29.27964748 -39.32734926 29.27964748 -47.13964844 27.51733398 C-47.75356445 27.34661377 -48.36748047 27.17589355 -49 27 C-48.15405273 26.72119995 -48.15405273 26.72119995 -47.29101562 26.43676758 C-44.69028979 25.57278771 -42.09525438 24.69277238 -39.5 23.8125 C-38.1696875 23.37454102 -38.1696875 23.37454102 -36.8125 22.92773438 C-31.64117993 21.1595992 -27.1881619 19.13406315 -22.67382812 16.0390625 C-20.52492159 14.70508552 -18.50482147 14.23482701 -16 14 C-16 13.34 -16 12.68 -16 12 C-12.70450534 10.27735506 -9.66881155 8.70554068 -6 8 C-6 7.34 -6 6.68 -6 6 C-1.61538462 3 -1.61538462 3 1 3 C0.505 1.515 0.505 1.515 0 0 Z " fill="#5C518C" transform="translate(500,605)"/>
<path d="M0 0 C4.31511007 4.31511007 3.05359461 13.36708985 3.1875 19.25 C2.94718535 35.87977398 -0.70033958 49.58709209 -11 63 C-11.66 63 -12.32 63 -13 63 C-13.2475 63.556875 -13.495 64.11375 -13.75 64.6875 C-16.34204027 69.48277451 -18.69619518 72.37939297 -24 74 C-22.95125002 71.37812506 -22.35068687 70.20628639 -19.875 68.75 C-18.946875 68.37875 -18.946875 68.37875 -18 68 C-18 67.34 -18 66.68 -18 66 C-16.3545622 64.31237149 -14.68711423 62.6459651 -13 61 C-12.67 60.34 -12.34 59.68 -12 59 C-11.34 59 -10.68 59 -10 59 C-9.89558594 58.45730469 -9.79117188 57.91460937 -9.68359375 57.35546875 C-8.83617053 54.43549045 -7.49574046 51.99325539 -6.0625 49.3125 C-3.42588867 44.17771517 -2.1073541 39.62905003 -1 34 C-0.01 33.505 -0.01 33.505 1 33 C1.12308347 21.94983981 0.83058514 11.02008501 0 0 Z " fill="#AF839D" transform="translate(663,267)"/>
<path d="M0 0 C3.73379823 0.60114819 6.6845967 1.69369067 10.0625 3.375 C28.77293751 12.04141416 48.69736974 11.13431046 68 5 C68 5.66 68 6.32 68 7 C62.20848288 9.36171832 56.73593051 10.80330767 50.5625 11.75 C49.76779297 11.88792969 48.97308594 12.02585937 48.15429688 12.16796875 C42.54841644 13.0528677 37.59317339 12.86225556 32 12 C31.00613281 11.88140625 30.01226562 11.7628125 28.98828125 11.640625 C18.62520329 10.1277669 8.51074393 7.2480688 0 1 C0 0.67 0 0.34 0 0 Z " fill="#4F4684" transform="translate(363,542)"/>
<path d="M0 0 C1.6384469 2.50831325 2.04187869 3.68199807 1.64453125 6.69921875 C1.36996094 7.68535156 1.09539063 8.67148437 0.8125 9.6875 C0.51730469 10.75613281 0.22210937 11.82476562 -0.08203125 12.92578125 C-1.29551396 16.98965738 -2.57792231 21.00433923 -4 25 C-4.39445313 26.11761719 -4.78890625 27.23523438 -5.1953125 28.38671875 C-7.40549332 34.61360542 -9.65289979 40.8234205 -12 47 C-12.66 47 -13.32 47 -14 47 C-14.4021875 48.11375 -14.4021875 48.11375 -14.8125 49.25 C-15.94229421 51.86636554 -17.20893202 53.80187111 -19 56 C-18.38418839 52.24422589 -17.29719368 49.13114809 -15.6875 45.6875 C-15.27886719 44.80449219 -14.87023437 43.92148437 -14.44921875 43.01171875 C-13.66997923 41.39232881 -12.88257089 39.77618933 -12.04760742 38.18481445 C-9.44771334 33.19388548 -7.5803467 28.18943933 -5.9375 22.8125 C-5.68145996 21.98967529 -5.42541992 21.16685059 -5.16162109 20.3190918 C-3.10899942 13.61181405 -1.40691031 6.87411441 0 0 Z " fill="#E6B5C5" transform="translate(803,325)"/>
<path d="M0 0 C0.495 1.485 0.495 1.485 1 3 C-0.109375 4.8671875 -0.109375 4.8671875 -1.75 6.875 C-3.47832314 9.01442914 -5.02472037 11.04264263 -6.40625 13.42578125 C-8.2433275 16.39302163 -10.37138904 18.76029476 -12.75 21.3125 C-15.73920763 24.5439589 -18.70050577 27.78042127 -21.5625 31.125 C-27.45065413 37.87213191 -33.50524787 44.05665285 -41 49 C-41.66 48.67 -42.32 48.34 -43 48 C-42.07058594 47.21496094 -41.14117188 46.42992187 -40.18359375 45.62109375 C-24.38264825 32.22115713 -11.42168401 17.37635973 0 0 Z " fill="#CCA1BC" transform="translate(776,395)"/>
<path d="M0 0 C3.6486374 0.36486374 6.50195891 1.14623389 9.70703125 2.85546875 C13.76912653 4.93550789 17.8805629 6.56552477 22.1875 8.0625 C22.91638428 8.31854004 23.64526855 8.57458008 24.39624023 8.83837891 C30.83789102 11.04770832 37.31675557 12.67497415 44 14 C40.90884998 14.96778996 38.75358719 14.98292096 35.5859375 14.36328125 C34.74643555 14.19989258 33.90693359 14.03650391 33.04199219 13.86816406 C32.16188477 13.68479492 31.28177734 13.50142578 30.375 13.3125 C29.47942383 13.13041992 28.58384766 12.94833984 27.66113281 12.76074219 C21.49264129 11.45254628 15.67527374 9.80776701 10 7 C10 6.34 10 5.68 10 5 C8.906875 4.731875 7.81375 4.46375 6.6875 4.1875 C3.38307337 3.12336261 2.05039578 2.65345336 0 0 Z " fill="#F0C6CB" transform="translate(558,462)"/>
<path d="M0 0 C0.66 0 1.32 0 2 0 C2.33 8.25 2.66 16.5 3 25 C2.34 24.67 1.68 24.34 1 24 C1 26.64 1 29.28 1 32 C0.34 32 -0.32 32 -1 32 C-1.02929981 28.16668301 -1.04689897 24.33339529 -1.0625 20.5 C-1.07087891 19.42234375 -1.07925781 18.3446875 -1.08789062 17.234375 C-1.10571885 11.38671618 -0.89105963 5.78136329 0 0 Z " fill="#7E84B9" transform="translate(305,423)"/>
<path d="M0 0 C0.66 0.33 1.32 0.66 2 1 C-5.92212017 5.93165097 -13.89168929 9.98567342 -22.5625 13.4375 C-23.41875977 13.77910156 -24.27501953 14.12070312 -25.15722656 14.47265625 C-29.07357365 15.9952503 -32.81787718 17.39277971 -37 18 C-33.7759068 14.19188992 -30.93836431 13.10594423 -26.1875 11.75 C-18.95489615 9.55906249 -12.61601055 6.36729377 -6.046875 2.671875 C-3 1 -3 1 0 0 Z " fill="#F8CFCF" transform="translate(713,455)"/>
<path d="M0 0 C3.2830691 3.0540448 5.04840772 6.64278326 7 10.625 C7.35449219 11.34341064 7.70898438 12.06182129 8.07421875 12.80200195 C14.64566511 26.32812725 14.64566511 26.32812725 14 33 C12 32 12 32 10.95703125 29.1484375 C10.57933594 27.90320313 10.20164062 26.65796875 9.8125 25.375 C7.78122163 18.89522987 5.22786747 12.84149768 2.2355957 6.74951172 C0 2.17661776 0 2.17661776 0 0 Z " fill="#7F6897" transform="translate(693,192)"/>
<path d="M0 0 C0.66 0.33 1.32 0.66 2 1 C-1.86120306 3.91560231 -5.39302888 6.40105068 -9.92578125 8.18359375 C-11.56257715 8.82783168 -13.18158697 9.51725416 -14.79296875 10.22265625 C-30.43443054 17.02242988 -30.43443054 17.02242988 -37 15 C-33.57471906 13.53114079 -30.33463365 12.60752189 -26.6875 11.875 C-17.71639546 9.72416376 -9.6663302 5.16370103 -1.65625 0.69140625 C-0.83640625 0.34916016 -0.83640625 0.34916016 0 0 Z " fill="#67548A" transform="translate(668,620)"/>
<path d="M0 0 C0.66 0 1.32 0 2 0 C-1.66512979 9.14223386 -14.77186676 16.15292954 -23 21 C-23.66 21 -24.32 21 -25 21 C-25 20.34 -25 19.68 -25 19 C-23.31874988 17.80457522 -21.57751917 16.69287157 -19.8125 15.625 C-16.79947527 13.79379086 -13.99990139 11.99991982 -11.26171875 9.7734375 C-9 8 -9 8 -7 8 C-6.7525 7.360625 -6.505 6.72125 -6.25 6.0625 C-5 4 -5 4 -2.9375 3.4375 C-2.298125 3.293125 -1.65875 3.14875 -1 3 C-0.67 2.01 -0.34 1.02 0 0 Z " fill="#F6CBCE" transform="translate(740,434)"/>
<path d="M0 0 C5.20648541 0.31238912 9.43483302 1.4483506 14.3125 3.3125 C22.99375542 6.56206677 31.91396661 8.26609811 41 10 C41 10.33 41 10.66 41 11 C35.78147401 11.18322523 31.1038916 10.56577392 26.0625 9.3125 C25.33611328 9.13605957 24.60972656 8.95961914 23.86132812 8.77783203 C18.5320573 7.45241157 13.2535189 5.97358526 8 4.375 C7.31172119 4.16915283 6.62344238 3.96330566 5.91430664 3.7512207 C4.25559245 3.2289193 2.62406986 2.62171424 1 2 C0.67 1.34 0.34 0.68 0 0 Z " fill="#5D4F84" transform="translate(545,628)"/>
<path d="M0 0 C4.58738782 8.56180571 5.71632769 18.50082488 7 28 C6.34 28.33 5.68 28.66 5 29 C4.70996094 27.82244141 4.70996094 27.82244141 4.4140625 26.62109375 C4.15367187 25.57050781 3.89328125 24.51992187 3.625 23.4375 C3.35300781 22.33535156 3.08101562 21.23320312 2.80078125 20.09765625 C2.21590732 17.8351927 1.53997713 15.59571967 0.8125 13.375 C-0.26968737 8.87976014 -0.16658448 4.59958268 0 0 Z " fill="#866D99" transform="translate(707,222)"/>
<path d="M0 0 C3.04466862 2.87552036 5.46164598 5.67117359 7.7109375 9.19140625 C12.23174203 15.534232 17.38002501 20.92616924 24 25 C24 25.66 24 26.32 24 27 C19.35414797 25.57050707 16.44362224 22.90962358 13.125 19.5 C12.60196289 18.96898682 12.07892578 18.43797363 11.54003906 17.89086914 C0 5.92798078 0 5.92798078 0 0 Z " fill="#47447C" transform="translate(330,509)"/>
<path d="M0 0 C0 3.45674567 -0.30461546 3.69368606 -2.60546875 6.0390625 C-3.17120605 6.61575684 -3.73694336 7.19245117 -4.31982422 7.78662109 C-4.93615723 8.39328613 -5.55249023 8.99995117 -6.1875 9.625 C-6.81156738 10.24584473 -7.43563477 10.86668945 -8.07861328 11.50634766 C-13.89451521 17.15252767 -20.14221422 21.69394846 -27 26 C-27.66 25.67 -28.32 25.34 -29 25 C-28.27296875 24.47792969 -27.5459375 23.95585938 -26.796875 23.41796875 C-17.13314366 16.34362183 -8.43324502 8.50977174 0 0 Z " fill="#645283" transform="translate(699,594)"/>
<path d="M0 0 C0.66 0.33 1.32 0.66 2 1 C5.13854629 1.2315321 8.26985751 1.39409881 11.4140625 1.51757812 C15.06549074 1.70805617 17.87917294 2.02347619 21 4 C19.13021484 3.98259766 19.13021484 3.98259766 17.22265625 3.96484375 C6.10439856 3.89461393 -4.91094894 4.19561288 -16 5 C-12.71888625 2.81259083 -10.73165037 2.49044144 -6.875 1.9375 C-3.12083165 1.68226276 -3.12083165 1.68226276 0 0 Z " fill="#6E619B" transform="translate(611,139)"/>
<path d="M0 0 C2.33196612 2.16898382 3.96236613 4.35986722 5.59375 7.08984375 C6.30337891 8.26643555 6.30337891 8.26643555 7.02734375 9.46679688 C7.51332031 10.28212891 7.99929688 11.09746094 8.5 11.9375 C9.46685527 13.55191749 10.4355473 15.16523668 11.40625 16.77734375 C11.83228516 17.49140381 12.25832031 18.20546387 12.69726562 18.94116211 C13.98596667 21.05648935 13.98596667 21.05648935 15.65039062 23.09204102 C17.36618933 25.51768625 17.24214549 27.09425408 17 30 C14.34760702 26.66603236 12.26150589 23.08288844 10.1875 19.375 C7.23978578 14.14527283 4.20450279 8.98808427 1.03125 3.890625 C0 2 0 2 0 0 Z " fill="#A47EA1" transform="translate(642,225)"/>
<path d="M0 0 C-4.87990323 3.79548029 -10.37449158 3.99226293 -16.3125 4.6875 C-17.85260742 4.88182617 -17.85260742 4.88182617 -19.42382812 5.08007812 C-21.948124 5.39708272 -24.47324478 5.70335188 -27 6 C-26.67 5.34 -26.34 4.68 -26 4 C-23.10032501 3.2151033 -20.25002464 2.54248745 -17.3125 1.9375 C-16.1069043 1.67743164 -16.1069043 1.67743164 -14.87695312 1.41210938 C-2.47091691 -1.23545845 -2.47091691 -1.23545845 0 0 Z " fill="#E7C3CA" transform="translate(683,472)"/>
<path d="M0 0 C3.37462715 0.54723683 5.08235 1.0549 8 3 C8 3.66 8 4.32 8 5 C8.66 5 9.32 5 10 5 C10 5.66 10 6.32 10 7 C12.31 7.66 14.62 8.32 17 9 C17 9.66 17 10.32 17 11 C17.99 11.33 18.98 11.66 20 12 C19.01 12.495 19.01 12.495 18 13 C11.48587349 9.85995698 5.26431131 5.97184957 0 1 C0 0.67 0 0.34 0 0 Z " fill="#ECBFCA" transform="translate(537,449)"/>
<path d="M0 0 C0.66 0 1.32 0 2 0 C1.56568635 5.42892065 0.37231161 8.70796704 -3 13 C-3.99 13.495 -3.99 13.495 -5 14 C-4.53411505 8.29290936 -3.06242216 4.84060277 0 0 Z " fill="#E0B1C3" transform="translate(782,381)"/>
<path d="M0 0 C0.66 0.33 1.32 0.66 2 1 C-2.69189185 5.44495017 -7.68136514 8.39427431 -14 10 C-15.34358762 9.71075756 -16.68011232 9.38312585 -18 9 C-12 6 -6 3 0 0 Z " fill="#CBA2BB" transform="translate(712,457)"/>
<path d="M0 0 C0.66 0.33 1.32 0.66 2 1 C-3.28 6.28 -8.56 11.56 -14 17 C-14 12.08113186 -10.31173311 9.3948461 -7 6 C-4.72300284 3.91201998 -2.39497582 1.9550823 0 0 Z " fill="#6FA4C6" transform="translate(325,108)"/>
<path d="M0 0 C0.99 0 1.98 0 3 0 C2.59524765 7.15062486 0.17476348 12.62704304 -3 19 C-4 17 -4 17 -3.22265625 14.1015625 C-2.64837891 12.38066406 -2.64837891 12.38066406 -2.0625 10.625 C-0.77504292 6.7582645 0 4.10518383 0 0 Z " fill="#A47A92" transform="translate(662,300)"/>
<path d="M0 0 C2.71342616 2.71342616 2.94040005 5.61044313 3.625 9.25 C3.7590625 9.90613281 3.893125 10.56226563 4.03125 11.23828125 C4.8055713 15.21260386 5.13816594 18.95550609 5 23 C3.12147944 19.65133292 2.23630791 16.35733428 1.375 12.625 C0.98441406 10.97371094 0.98441406 10.97371094 0.5859375 9.2890625 C0.01994753 6.11197215 -0.10695826 3.21847142 0 0 Z " fill="#7370B1" transform="translate(305,465)"/>
<path d="M0 0 C3.74525799 3.74525799 3.68909949 7.98270909 4 13 C-0.875 9.375 -0.875 9.375 -2 6 C-1.34 6 -0.68 6 0 6 C0 4.02 0 2.04 0 0 Z " fill="#F4C3C5" transform="translate(511,415)"/>
<path d="M0 0 C-3.7935871 3.21880117 -7.65829477 5.6163187 -12 8 C-9.61073151 2.4250402 -6.23702493 -1.87110748 0 0 Z " fill="#50457E" transform="translate(503,609)"/>
<path d="M0 0 C1.63885071 1.39985164 3.27678227 2.80079312 4.91015625 4.20703125 C6.34885035 5.44135012 7.79460656 6.66746951 9.24609375 7.88671875 C9.96925781 8.50160156 10.69242188 9.11648438 11.4375 9.75 C12.11683594 10.32234375 12.79617188 10.8946875 13.49609375 11.484375 C15 13 15 13 15 15 C10.96918 13.387672 8.24055863 10.53765404 5.25 7.5 C4.74339844 7.00113281 4.23679687 6.50226563 3.71484375 5.98828125 C0 2.25341139 0 2.25341139 0 0 Z " fill="#E8BBC8" transform="translate(515,428)"/>
<path d="M0 0 C0.66 0.33 1.32 0.66 2 1 C0.8125 3.5 0.8125 3.5 -1 6 C-4.56743119 6.8918578 -6.7449278 5.72899524 -9.8125 4 C-11.3903125 3.01 -11.3903125 3.01 -13 2 C-10 1 -10 1 -7.0625 2.125 C-6.051875 2.41375 -5.04125 2.7025 -4 3 C-1.61694804 1.75651531 -1.61694804 1.75651531 0 0 Z " fill="#777FB0" transform="translate(525,104)"/>
<path d="M0 0 C0.66 0.33 1.32 0.66 2 1 C0.56458334 2.29398147 -0.87341352 3.58510111 -2.3125 4.875 C-3.11300781 5.59429687 -3.91351562 6.31359375 -4.73828125 7.0546875 C-7 9 -7 9 -10 11 C-12.1875 10.625 -12.1875 10.625 -14 10 C-13.07316406 9.36191406 -12.14632812 8.72382813 -11.19140625 8.06640625 C-9.98173309 7.23182554 -8.77209973 6.39718714 -7.5625 5.5625 C-6.64500977 4.93118164 -6.64500977 4.93118164 -5.70898438 4.28710938 C-2.71897291 2.31239178 -2.71897291 2.31239178 0 0 Z " fill="#CAA3BD" transform="translate(731,444)"/>
<path d="M0 0 C2.62901914 2.35838482 4.14649342 4.80122977 5.75 7.9375 C6.19859375 8.79214844 6.6471875 9.64679688 7.109375 10.52734375 C8.08377402 13.23258313 8.00579304 14.35672682 7 17 C5.82866942 14.54379149 4.66278278 12.08525083 3.5 9.625 C3.16613281 8.92632812 2.83226562 8.22765625 2.48828125 7.5078125 C0 2.2265625 0 2.2265625 0 0 Z " fill="#786194" transform="translate(693,192)"/>
<path d="M0 0 C0.33 0 0.66 0 1 0 C1.33895656 1.72807318 1.67091525 3.45751974 2 5.1875 C2.185625 6.15042969 2.37125 7.11335938 2.5625 8.10546875 C2.96877612 10.7934206 3.07933572 13.28771019 3 16 C2.01 15.67 1.02 15.34 0 15 C0 10.05 0 5.1 0 0 Z " fill="#8E8EBD" transform="translate(305,432)"/>
<path d="M0 0 C1.51953125 1.08203125 1.51953125 1.08203125 3 3 C3.07421875 6.13671875 3.07421875 6.13671875 2.6875 9.6875 C2.50767578 11.45673828 2.50767578 11.45673828 2.32421875 13.26171875 C2.21722656 14.16535156 2.11023438 15.06898438 2 16 C1.67 16 1.34 16 1 16 C0.08342019 10.61509359 -0.11138159 5.45769811 0 0 Z " fill="#98799D" transform="translate(714,269)"/>
<path d="M0 0 C5.34844008 0.53484401 9.35796103 2.46690767 14 5 C9.54447901 6.44926837 7.13143187 5.1032744 3 3 C1.0625 1.3125 1.0625 1.3125 0 0 Z " fill="#F4C8CC" transform="translate(558,462)"/>
<path d="M0 0 C5.27749285 0.53851968 9.25645564 1.77343836 14 4 C10.30962722 5.37095624 8.29116165 4.60010967 4.75 3.0625 C3.85796875 2.68222656 2.9659375 2.30195313 2.046875 1.91015625 C1.37140625 1.60980469 0.6959375 1.30945313 0 1 C0 0.67 0 0.34 0 0 Z " fill="#90686D" transform="translate(531,403)"/>
<path d="M0 0 C1.44010481 0.25662245 2.8770687 0.53090821 4.3125 0.8125 C5.11300781 0.96332031 5.91351562 1.11414063 6.73828125 1.26953125 C9.23445587 2.07572236 10.32422106 3.02052002 12 5 C8.76344816 5 7.21247361 4.3449153 4.3125 3 C3.50425781 2.62875 2.69601562 2.2575 1.86328125 1.875 C1.24839844 1.58625 0.63351562 1.2975 0 1 C0 0.67 0 0.34 0 0 Z " fill="#61558C" transform="translate(533,623)"/>
<path d="M0 0 C0.66 0 1.32 0 2 0 C0.33248852 3.94139078 -2.22710649 6.7892812 -5 10 C-5 6.65580848 -4.52480606 5.93159679 -2.625 3.3125 C-2.18414062 2.68988281 -1.74328125 2.06726563 -1.2890625 1.42578125 C-0.86367188 0.95527344 -0.43828125 0.48476562 0 0 Z " fill="#6DA7CD" transform="translate(261,186)"/>
<path d="M0 0 C0.66 0.33 1.32 0.66 2 1 C-0.31 3.31 -2.62 5.62 -5 8 C-5.66 7.34 -6.32 6.68 -7 6 C-4.69 4.02 -2.38 2.04 0 0 Z " fill="#E3C2B0" transform="translate(662,386)"/>
<path d="M0 0 C0.66 0 1.32 0 2 0 C0.73058503 3.91402949 -0.51167694 5.79072873 -4 8 C-3.67 6.68 -3.34 5.36 -3 4 C-2.34 4 -1.68 4 -1 4 C-0.67 2.68 -0.34 1.36 0 0 Z " fill="#70ACD0" transform="translate(289,150)"/>
<path d="M0 0 C0.99 0.33 1.98 0.66 3 1 C-1.455 3.97 -1.455 3.97 -6 7 C-4.14418503 3.28837006 -3.44285416 1.98224936 0 0 Z " fill="#325D7D" transform="translate(334,99)"/>
</svg>
